<svg xmlns="http://www.w3.org/2000/svg" xmlns:xlink="http://www.w3.org/1999/xlink" width="500" zoomAndPan="magnify" viewBox="0 0 375 374.999991" height="500" preserveAspectRatio="xMidYMid meet" version="1.0"><defs><g/><clipPath id="699c37959c"><path d="M 112.5 112.875 L 249 112.875 L 249 249 L 112.5 249 Z M 112.5 112.875 " clip-rule="nonzero"/></clipPath><clipPath id="8f5a108f53"><path d="M 126.910156 112.933594 L 262.3125 112.933594 L 262.3125 248.457031 L 126.910156 248.457031 Z M 126.910156 112.933594 " clip-rule="nonzero"/></clipPath><clipPath id="9f1f1fe31f"><path d="M 177.378906 220.671875 L 196 220.671875 L 196 262.125 L 177.378906 262.125 Z M 177.378906 220.671875 " clip-rule="nonzero"/></clipPath></defs><g clip-path="url(#699c37959c)"><path fill="#000000" d="M 244.394531 118.75 L 205.179688 157.960938 C 204.59375 158.550781 203.640625 158.550781 203.054688 157.960938 C 202.464844 157.371094 202.464844 156.421875 203.054688 155.832031 L 242.265625 116.621094 L 234.839844 115.925781 C 234.015625 115.851562 233.410156 115.121094 233.480469 114.296875 C 233.558594 113.472656 234.285156 112.867188 235.113281 112.941406 L 245.722656 113.933594 C 246.457031 114 247.019531 114.585938 247.082031 115.296875 L 248.074219 125.90625 C 248.148438 126.726562 247.539062 127.457031 246.714844 127.53125 C 245.890625 127.605469 245.164062 127 245.089844 126.175781 Z M 129.660156 218.074219 C 128.835938 218 128.226562 217.269531 128.304688 216.445312 C 128.378906 215.621094 129.105469 215.011719 129.929688 215.089844 L 142.613281 216.277344 L 161.558594 197.324219 C 162.148438 196.742188 163.101562 196.742188 163.6875 197.324219 C 164.277344 197.914062 164.277344 198.867188 163.6875 199.453125 L 144.742188 218.402344 L 145.925781 231.082031 C 146 231.90625 145.390625 232.640625 144.570312 232.710938 C 143.746094 232.789062 143.019531 232.179688 142.941406 231.355469 L 141.988281 221.15625 L 136.8125 226.332031 L 138 239.015625 C 138.074219 239.835938 137.464844 240.566406 136.640625 240.640625 C 135.816406 240.71875 135.085938 240.109375 135.015625 239.285156 L 134.058594 229.082031 L 129.175781 233.964844 L 130.363281 246.648438 C 130.4375 247.472656 129.828125 248.203125 129.003906 248.277344 C 128.179688 248.351562 127.453125 247.742188 127.378906 246.917969 L 126.265625 235.035156 C 126.210938 234.992188 126.160156 234.949219 126.113281 234.902344 C 126.066406 234.855469 126.019531 234.804688 125.980469 234.75 L 114.097656 233.636719 C 113.273438 233.5625 112.664062 232.832031 112.738281 232.007812 C 112.8125 231.1875 113.542969 230.578125 114.367188 230.652344 L 127.050781 231.839844 L 131.929688 226.957031 L 121.734375 226.003906 C 120.90625 225.925781 120.300781 225.199219 120.375 224.375 C 120.449219 223.550781 121.179688 222.945312 122.003906 223.015625 L 134.683594 224.203125 L 139.859375 219.027344 L 129.660156 218.074219 " fill-opacity="1" fill-rule="nonzero"/></g><g clip-path="url(#8f5a108f53)"><path fill="#000000" d="M 132.78125 116.621094 L 174.417969 158.257812 C 175.003906 158.84375 175.003906 159.796875 174.417969 160.382812 C 173.828125 160.96875 172.878906 160.96875 172.289062 160.382812 L 130.652344 118.75 L 129.957031 126.175781 C 129.882812 127 129.152344 127.605469 128.332031 127.53125 C 127.503906 127.457031 126.898438 126.726562 126.972656 125.90625 L 127.964844 115.296875 C 128.027344 114.589844 128.589844 114 129.324219 113.933594 L 139.9375 112.941406 C 140.761719 112.867188 141.492188 113.472656 141.566406 114.296875 C 141.640625 115.121094 141.03125 115.851562 140.207031 115.925781 Z M 260.679688 230.652344 C 261.503906 230.578125 262.234375 231.1875 262.308594 232.007812 C 262.382812 232.832031 261.773438 233.5625 260.949219 233.636719 L 249.066406 234.75 C 249.027344 234.804688 248.984375 234.855469 248.933594 234.902344 C 248.886719 234.949219 248.835938 234.992188 248.78125 235.035156 L 247.667969 246.917969 C 247.597656 247.742188 246.863281 248.351562 246.042969 248.277344 C 245.21875 248.203125 244.609375 247.472656 244.683594 246.648438 L 245.871094 233.964844 L 240.988281 229.082031 L 240.035156 239.285156 C 239.957031 240.109375 239.230469 240.71875 238.40625 240.640625 C 237.582031 240.566406 236.972656 239.835938 237.050781 239.015625 L 238.238281 226.332031 L 233.0625 221.15625 L 232.105469 231.355469 C 232.03125 232.179688 231.300781 232.789062 230.476562 232.710938 C 229.652344 232.640625 229.046875 231.90625 229.121094 231.082031 L 230.308594 218.402344 L 210.949219 199.039062 C 210.359375 198.453125 210.359375 197.5 210.949219 196.914062 C 211.535156 196.328125 212.488281 196.328125 213.074219 196.914062 L 232.4375 216.277344 L 245.117188 215.089844 C 245.9375 215.011719 246.671875 215.621094 246.742188 216.445312 C 246.820312 217.269531 246.210938 218 245.386719 218.074219 L 235.1875 219.027344 L 240.363281 224.203125 L 253.046875 223.015625 C 253.867188 222.945312 254.597656 223.550781 254.671875 224.375 C 254.75 225.199219 254.140625 225.925781 253.316406 226.003906 L 243.117188 226.957031 L 248 231.839844 L 260.679688 230.652344 " fill-opacity="1" fill-rule="nonzero"/></g><g clip-path="url(#9f1f1fe31f)"><path fill="#000000" d="M 188.136719 226.800781 L 188.136719 228.816406 C 188.414062 229.621094 189.027344 230.460938 189.796875 231.171875 C 190.648438 231.964844 191.648438 232.570312 192.542969 232.773438 C 193.351562 232.957031 193.859375 233.757812 193.679688 234.566406 C 193.496094 235.375 192.691406 235.882812 191.886719 235.699219 C 190.609375 235.410156 189.273438 234.675781 188.136719 233.710938 L 188.136719 236.105469 C 188.484375 237.152344 189.273438 238.242188 190.261719 239.160156 C 191.339844 240.164062 192.609375 240.929688 193.757812 241.1875 C 194.566406 241.371094 195.074219 242.175781 194.894531 242.980469 C 194.710938 243.789062 193.90625 244.296875 193.101562 244.113281 C 191.421875 243.734375 189.652344 242.699219 188.214844 241.355469 L 188.136719 241.28125 L 188.136719 244.664062 C 188.539062 245.890625 189.457031 247.164062 190.605469 248.234375 C 191.847656 249.390625 193.316406 250.273438 194.65625 250.578125 C 195.464844 250.761719 195.972656 251.5625 195.789062 252.371094 C 195.609375 253.179688 194.804688 253.6875 193.996094 253.503906 C 192.132812 253.082031 190.164062 251.921875 188.5625 250.429688 C 188.414062 250.296875 188.277344 250.15625 188.136719 250.019531 L 188.136719 260.632812 C 188.136719 261.464844 187.460938 262.136719 186.628906 262.136719 C 185.800781 262.136719 185.125 261.464844 185.125 260.632812 L 185.125 250.019531 C 184.988281 250.15625 184.847656 250.296875 184.699219 250.429688 C 183.097656 251.921875 181.128906 253.082031 179.265625 253.503906 C 178.457031 253.6875 177.65625 253.179688 177.472656 252.371094 C 177.292969 251.5625 177.800781 250.761719 178.605469 250.578125 C 179.945312 250.273438 181.414062 249.390625 182.65625 248.234375 C 183.804688 247.160156 184.726562 245.886719 185.125 244.65625 L 185.125 241.28125 L 185.042969 241.355469 C 183.605469 242.699219 181.839844 243.734375 180.164062 244.113281 C 179.355469 244.296875 178.550781 243.789062 178.371094 242.980469 C 178.1875 242.175781 178.695312 241.371094 179.503906 241.1875 C 180.652344 240.929688 181.921875 240.164062 183 239.160156 C 183.988281 238.242188 184.777344 237.152344 185.125 236.101562 L 185.125 233.710938 C 183.988281 234.675781 182.65625 235.410156 181.375 235.699219 C 180.566406 235.882812 179.765625 235.375 179.585938 234.566406 C 179.402344 233.757812 179.910156 232.957031 180.71875 232.773438 C 181.617188 232.570312 182.613281 231.964844 183.464844 231.171875 C 184.234375 230.457031 184.847656 229.617188 185.125 228.8125 L 185.125 226.800781 C 184.183594 227.53125 183.117188 228.085938 182.085938 228.320312 C 181.28125 228.5 180.476562 227.992188 180.296875 227.183594 C 180.113281 226.375 180.625 225.574219 181.429688 225.394531 C 182.179688 225.222656 183.015625 224.714844 183.738281 224.039062 C 184.433594 223.394531 184.984375 222.625 185.1875 221.910156 C 185.410156 221.113281 186.238281 220.644531 187.035156 220.871094 C 187.558594 221.015625 187.941406 221.421875 188.078125 221.910156 C 188.277344 222.625 188.824219 223.390625 189.523438 224.039062 C 190.246094 224.714844 191.085938 225.222656 191.832031 225.394531 C 192.640625 225.574219 193.148438 226.375 192.96875 227.183594 C 192.785156 227.992188 191.980469 228.5 191.171875 228.320312 C 190.144531 228.085938 189.078125 227.53125 188.136719 226.800781 " fill-opacity="1" fill-rule="evenodd"/></g><path fill="#000000" d="M 213.730469 234.160156 L 213.730469 236.179688 C 214.011719 236.980469 214.625 237.820312 215.390625 238.53125 C 216.242188 239.328125 217.242188 239.933594 218.140625 240.136719 C 218.949219 240.320312 219.457031 241.121094 219.273438 241.929688 C 219.09375 242.734375 218.289062 243.246094 217.480469 243.0625 C 216.203125 242.773438 214.867188 242.039062 213.730469 241.074219 L 213.730469 243.464844 C 214.082031 244.515625 214.871094 245.601562 215.859375 246.519531 C 216.9375 247.523438 218.203125 248.289062 219.355469 248.550781 C 220.164062 248.734375 220.667969 249.535156 220.488281 250.34375 C 220.304688 251.148438 219.503906 251.660156 218.695312 251.476562 C 217.015625 251.097656 215.25 250.058594 213.8125 248.71875 L 213.730469 248.644531 L 213.730469 259.238281 C 213.730469 260.066406 213.058594 260.742188 212.226562 260.742188 C 211.398438 260.742188 210.722656 260.066406 210.722656 259.238281 L 210.722656 248.644531 L 210.640625 248.71875 C 209.203125 250.058594 207.4375 251.097656 205.757812 251.476562 C 204.953125 251.660156 204.148438 251.148438 203.964844 250.34375 C 203.785156 249.535156 204.292969 248.734375 205.101562 248.550781 C 206.25 248.289062 207.519531 247.523438 208.597656 246.519531 C 209.582031 245.601562 210.375 244.511719 210.722656 243.464844 L 210.722656 241.074219 C 209.585938 242.039062 208.25 242.773438 206.972656 243.0625 C 206.164062 243.246094 205.359375 242.734375 205.179688 241.929688 C 204.996094 241.121094 205.507812 240.320312 206.3125 240.136719 C 207.210938 239.933594 208.210938 239.328125 209.0625 238.53125 C 209.828125 237.820312 210.445312 236.980469 210.722656 236.179688 L 210.722656 234.160156 C 209.78125 234.894531 208.710938 235.449219 207.683594 235.683594 C 206.875 235.863281 206.070312 235.355469 205.890625 234.546875 C 205.707031 233.738281 206.21875 232.9375 207.023438 232.757812 C 207.777344 232.585938 208.613281 232.074219 209.335938 231.402344 C 210.03125 230.753906 210.578125 229.988281 210.78125 229.273438 C 211.003906 228.472656 211.832031 228.007812 212.632812 228.234375 C 213.15625 228.378906 213.535156 228.785156 213.671875 229.273438 C 213.875 229.988281 214.421875 230.753906 215.117188 231.402344 C 215.839844 232.074219 216.679688 232.585938 217.429688 232.757812 C 218.238281 232.9375 218.746094 233.738281 218.5625 234.546875 C 218.382812 235.355469 217.578125 235.863281 216.769531 235.683594 C 215.742188 235.449219 214.671875 234.894531 213.730469 234.160156 " fill-opacity="1" fill-rule="evenodd"/><path fill="#000000" d="M 164.292969 234.160156 L 164.292969 236.179688 C 164.574219 236.980469 165.1875 237.820312 165.953125 238.53125 C 166.808594 239.328125 167.808594 239.933594 168.703125 240.136719 C 169.511719 240.320312 170.019531 241.121094 169.835938 241.929688 C 169.65625 242.734375 168.851562 243.246094 168.046875 243.0625 C 166.765625 242.773438 165.433594 242.039062 164.292969 241.074219 L 164.292969 243.464844 C 164.644531 244.515625 165.433594 245.601562 166.421875 246.519531 C 167.5 247.523438 168.765625 248.289062 169.917969 248.550781 C 170.722656 248.734375 171.230469 249.535156 171.050781 250.34375 C 170.871094 251.148438 170.066406 251.660156 169.257812 251.476562 C 167.582031 251.097656 165.8125 250.058594 164.375 248.71875 L 164.292969 248.644531 L 164.292969 259.238281 C 164.292969 260.066406 163.621094 260.742188 162.789062 260.742188 C 161.957031 260.742188 161.285156 260.066406 161.285156 259.238281 L 161.285156 248.644531 L 161.203125 248.71875 C 159.765625 250.058594 158 251.097656 156.320312 251.476562 C 155.511719 251.660156 154.710938 251.148438 154.53125 250.34375 C 154.347656 249.535156 154.855469 248.734375 155.664062 248.550781 C 156.8125 248.289062 158.082031 247.523438 159.160156 246.519531 C 160.148438 245.601562 160.9375 244.511719 161.285156 243.464844 L 161.285156 241.074219 C 160.148438 242.039062 158.8125 242.773438 157.535156 243.0625 C 156.726562 243.246094 155.921875 242.734375 155.742188 241.929688 C 155.558594 241.121094 156.070312 240.320312 156.875 240.136719 C 157.773438 239.933594 158.773438 239.328125 159.625 238.53125 C 160.390625 237.820312 161.007812 236.980469 161.285156 236.179688 L 161.285156 234.160156 C 160.34375 234.894531 159.277344 235.449219 158.246094 235.683594 C 157.4375 235.863281 156.632812 235.355469 156.453125 234.546875 C 156.273438 233.738281 156.78125 232.9375 157.589844 232.757812 C 158.335938 232.585938 159.175781 232.074219 159.898438 231.402344 C 160.59375 230.753906 161.144531 229.988281 161.34375 229.273438 C 161.570312 228.472656 162.398438 228.007812 163.195312 228.234375 C 163.71875 228.378906 164.097656 228.785156 164.234375 229.273438 C 164.4375 229.988281 164.984375 230.753906 165.683594 231.402344 C 166.402344 232.074219 167.242188 232.585938 167.992188 232.757812 C 168.800781 232.9375 169.304688 233.738281 169.125 234.546875 C 168.945312 235.355469 168.140625 235.863281 167.332031 235.683594 C 166.300781 235.449219 165.238281 234.894531 164.292969 234.160156 " fill-opacity="1" fill-rule="evenodd"/><path fill="#000000" d="M 155.476562 131.382812 C 154.75 131.773438 153.839844 131.507812 153.441406 130.78125 C 153.046875 130.054688 153.316406 129.144531 154.042969 128.746094 L 173.234375 118.3125 C 173.78125 118.015625 174.429688 118.09375 174.886719 118.457031 L 174.886719 118.453125 L 178.257812 121.140625 L 189.601562 114.035156 C 190.140625 113.699219 190.8125 113.746094 191.292969 114.109375 L 191.292969 114.105469 L 202.476562 122.488281 L 205.769531 120.316406 C 206.300781 119.960938 206.980469 119.992188 207.472656 120.34375 L 221.011719 129.105469 C 221.707031 129.554688 221.902344 130.484375 221.453125 131.179688 C 221 131.871094 220.070312 132.070312 219.378906 131.621094 L 206.605469 123.359375 L 197.648438 129.269531 C 196.960938 129.726562 196.027344 129.539062 195.566406 128.847656 C 195.113281 128.15625 195.300781 127.222656 195.992188 126.765625 L 199.816406 124.242188 L 190.320312 117.117188 L 179.050781 124.175781 C 178.984375 124.226562 178.910156 124.269531 178.835938 124.308594 L 170.90625 129.277344 C 170.203125 129.714844 169.28125 129.503906 168.839844 128.800781 C 168.40625 128.101562 168.617188 127.175781 169.316406 126.742188 L 175.558594 122.832031 L 173.792969 121.421875 L 155.476562 131.382812 " fill-opacity="1" fill-rule="nonzero"/><g fill="#000000" fill-opacity="1"><g transform="translate(75.148479, 188.011204)"><g><path d="M 25.527344 -19.503906 C 25.617188 -18.851562 25.558594 -18.078125 25.441406 -17.394531 L 24.191406 -12.140625 C 23.628906 -9.707031 23.332031 -8.402344 22.976562 -8.402344 C 22.5625 -8.402344 22.117188 -10.121094 21.105469 -13.804688 C 19.265625 -20.75 19.265625 -20.75 17.277344 -20.75 C 15.316406 -20.75 15.316406 -20.75 13.449219 -13.804688 C 12.4375 -10.09375 11.992188 -8.371094 11.578125 -8.371094 C 11.222656 -8.371094 10.925781 -9.675781 10.359375 -12.113281 L 9.144531 -17.335938 C 8.996094 -18.019531 8.933594 -18.820312 9.023438 -19.472656 C 9.082031 -19.917969 9.171875 -20.214844 9.171875 -20.421875 C 9.171875 -20.75 8.933594 -20.808594 7.835938 -20.808594 C 7.242188 -20.808594 6.382812 -20.78125 5.164062 -20.78125 C 3.742188 -20.78125 2.789062 -20.839844 2.226562 -20.839844 C 0.890625 -20.839844 1.484375 -20.570312 2.433594 -18.9375 C 2.96875 -18.046875 3.355469 -17.039062 3.5625 -16.386719 L 5.964844 -8.191406 C 8.371094 0 8.371094 0 10.269531 0 C 12.171875 0 12.171875 0 14.011719 -6.945312 C 14.929688 -10.417969 15.40625 -12.140625 15.882812 -12.140625 C 16.355469 -12.140625 16.800781 -10.417969 17.722656 -6.945312 C 19.59375 0 19.59375 0 21.492188 0 C 23.421875 0 23.421875 0 25.796875 -8.132812 C 28.171875 -16.265625 27.84375 -16.414062 29.269531 -18.851562 C 29.921875 -19.976562 30.398438 -20.484375 30.398438 -20.691406 C 30.398438 -20.929688 29.773438 -20.78125 27.992188 -20.78125 C 27.132812 -20.78125 26.566406 -20.808594 26.152344 -20.808594 C 25.527344 -20.808594 25.351562 -20.78125 25.351562 -20.542969 C 25.351562 -20.363281 25.46875 -20.039062 25.527344 -19.503906 Z M 25.527344 -19.503906 "/></g></g></g><g fill="#000000" fill-opacity="1"><g transform="translate(106.909986, 188.011204)"><g><path d="M 6.324219 -1.78125 C 6.410156 -3.296875 6.828125 -4.304688 7.003906 -4.839844 C 7.183594 -5.402344 7.183594 -5.402344 10.300781 -5.402344 C 13.449219 -5.402344 13.449219 -5.402344 13.65625 -4.777344 L 13.863281 -4.1875 C 14.070312 -3.503906 14.308594 -2.523438 14.308594 -1.691406 C 14.367188 -0.117188 13.773438 0 16.355469 0 L 18.195312 0 C 19.265625 0 20.039062 0.03125 20.601562 0.03125 C 21.523438 0.03125 21.847656 -0.03125 21.847656 -0.238281 C 21.847656 -0.476562 21.402344 -0.890625 20.839844 -1.75 C 20.246094 -2.613281 19.800781 -3.621094 19.5625 -4.304688 L 16.683594 -12.527344 C 13.804688 -20.78125 13.804688 -20.78125 10.746094 -20.78125 L 9.617188 -20.78125 C 8.667969 -20.78125 8.460938 -20.75 8.460938 -20.394531 C 8.460938 -20.125 8.578125 -19.679688 8.550781 -19 C 8.519531 -18.109375 8.253906 -17.097656 8.042969 -16.445312 L 5.9375 -10.449219 C 3.859375 -4.484375 3.769531 -4.097656 2.582031 -1.898438 C 2.019531 -0.859375 1.484375 -0.355469 1.484375 -0.148438 C 1.484375 0.0898438 2.078125 0 3.800781 0 L 5.074219 0 C 6.203125 0 6.382812 -0.03125 6.382812 -0.445312 C 6.382812 -0.710938 6.292969 -1.128906 6.324219 -1.78125 Z M 10.300781 -8.074219 C 8.996094 -8.074219 8.460938 -8.074219 8.460938 -8.757812 C 8.460938 -9.230469 8.726562 -10.0625 9.203125 -11.457031 C 9.765625 -13.152344 10.0625 -14.011719 10.332031 -14.011719 C 10.597656 -14.011719 10.863281 -13.152344 11.429688 -11.457031 C 11.902344 -10.0625 12.171875 -9.230469 12.171875 -8.757812 C 12.171875 -8.074219 11.636719 -8.074219 10.300781 -8.074219 Z M 10.300781 -8.074219 "/></g></g></g><g fill="#000000" fill-opacity="1"><g transform="translate(130.241329, 188.011204)"><g><path d="M 6.472656 -1.722656 C 6.203125 -2.554688 6.085938 -3.53125 6.085938 -4.214844 L 6.085938 -9.351562 C 6.085938 -11.726562 6.085938 -13.003906 6.5 -13.003906 C 7.003906 -13.003906 8.074219 -11.191406 10.417969 -7.242188 C 14.78125 0 14.78125 0 17.304688 0 C 19.859375 0 19.859375 0 19.859375 -8.132812 L 19.859375 -16.265625 C 19.859375 -16.890625 19.917969 -17.929688 20.1875 -18.878906 C 20.484375 -19.890625 20.78125 -20.363281 20.78125 -20.601562 C 20.78125 -20.898438 20.246094 -20.78125 18.375 -20.78125 C 17.484375 -20.78125 16.921875 -20.808594 16.535156 -20.808594 C 15.523438 -20.808594 16.058594 -20.601562 16.5625 -18.9375 C 16.832031 -18.046875 16.921875 -17.039062 16.949219 -16.386719 L 16.949219 -11.964844 C 16.949219 -9.972656 16.949219 -8.90625 16.59375 -8.90625 C 16.148438 -8.90625 15.167969 -10.539062 12.972656 -14.160156 C 8.996094 -20.78125 8.996094 -20.78125 5.164062 -20.78125 C 4.125 -20.78125 3.414062 -20.808594 2.96875 -20.808594 C 1.722656 -20.808594 2.285156 -20.601562 2.789062 -18.9375 C 3.058594 -18.046875 3.148438 -17.039062 3.175781 -16.386719 L 3.175781 -4.394531 C 3.148438 -3.742188 3.058594 -2.730469 2.789062 -1.839844 C 2.492188 -0.859375 2.195312 -0.414062 2.195312 -0.179688 C 2.195312 0.117188 2.730469 0 4.601562 0 C 5.519531 0 6.113281 0.03125 6.5 0.03125 C 7.480469 0.03125 6.976562 -0.179688 6.472656 -1.722656 Z M 6.472656 -1.722656 "/></g></g></g><g fill="#000000" fill-opacity="1"><g transform="translate(153.246161, 188.011204)"><g><path d="M 11.25 0 C 17.097656 0 21.460938 -4.453125 21.460938 -10.480469 C 21.460938 -16.414062 17.1875 -20.78125 11.25 -20.78125 L 6.441406 -20.78125 C 5.164062 -20.78125 4.304688 -20.808594 3.710938 -20.808594 C 2.878906 -20.808594 2.613281 -20.75 2.613281 -20.484375 C 2.613281 -20.214844 2.878906 -19.742188 3.117188 -18.878906 C 3.355469 -17.929688 3.445312 -16.890625 3.445312 -16.265625 L 3.445312 -4.542969 C 3.445312 -3.890625 3.355469 -2.851562 3.117188 -1.929688 C 2.878906 -1.070312 2.613281 -0.5625 2.613281 -0.296875 C 2.613281 -0.03125 2.878906 0.03125 3.710938 0.03125 C 4.304688 0.03125 5.195312 0 6.441406 0 Z M 11.222656 -18.109375 C 13.566406 -18.109375 15.40625 -14.753906 15.40625 -10.390625 C 15.40625 -6.054688 13.566406 -2.671875 11.222656 -2.671875 L 10.0625 -2.671875 C 8.933594 -2.671875 8.933594 -2.671875 8.933594 -10.390625 C 8.933594 -18.109375 8.933594 -18.109375 10.0625 -18.109375 Z M 11.222656 -18.109375 "/></g></g></g><g fill="#000000" fill-opacity="1"><g transform="translate(175.746365, 188.011204)"><g><path d="M 18.167969 -3.382812 C 18.226562 -4.511719 18.316406 -5.195312 18.316406 -5.550781 C 18.316406 -6.261719 18.019531 -5.582031 16.980469 -4.421875 C 16.117188 -3.472656 14.664062 -2.671875 12.4375 -2.671875 L 10.6875 -2.671875 C 8.964844 -2.671875 8.964844 -2.671875 8.964844 -5.816406 C 8.964844 -7.984375 9.082031 -8.964844 9.972656 -8.964844 C 10.390625 -8.964844 10.984375 -8.726562 11.84375 -8.3125 C 12.675781 -7.894531 13.089844 -7.511719 13.300781 -7.511719 C 13.476562 -7.511719 13.507812 -7.777344 13.507812 -8.578125 L 13.507812 -12.320312 C 13.507812 -13.03125 13.507812 -13.300781 13.328125 -13.300781 C 13.121094 -13.300781 12.675781 -12.882812 11.84375 -12.46875 C 10.984375 -12.023438 10.390625 -11.816406 9.972656 -11.816406 C 9.082031 -11.816406 8.964844 -12.792969 8.964844 -14.929688 C 8.964844 -18.109375 8.964844 -18.109375 10.390625 -18.109375 L 11.84375 -18.109375 C 14.070312 -18.109375 15.496094 -17.277344 16.386719 -16.355469 C 17.15625 -15.554688 17.484375 -14.992188 17.632812 -14.992188 C 17.78125 -14.992188 17.691406 -15.613281 17.574219 -17.367188 C 17.367188 -20.78125 17.367188 -20.78125 9.5 -20.78125 C 7.421875 -20.78125 5.964844 -20.808594 4.925781 -20.808594 C 3.207031 -20.808594 2.703125 -20.71875 2.703125 -20.273438 C 2.703125 -19.976562 2.910156 -19.5625 3.117188 -18.878906 C 3.382812 -17.929688 3.472656 -16.890625 3.472656 -16.265625 L 3.472656 -4.542969 C 3.472656 -3.890625 3.382812 -2.851562 3.117188 -1.929688 C 2.910156 -1.246094 2.703125 -0.800781 2.703125 -0.503906 C 2.703125 -0.0585938 3.234375 0.03125 5.074219 0.03125 C 6.144531 0.03125 7.660156 0 9.796875 0 C 17.960938 0 17.960938 0 18.167969 -3.382812 Z M 18.167969 -3.382812 "/></g></g></g><g fill="#000000" fill-opacity="1"><g transform="translate(194.95169, 188.011204)"><g><path d="M 9.292969 -1.929688 C 9.023438 -2.851562 8.964844 -3.890625 8.964844 -4.542969 L 8.964844 -6.410156 C 8.964844 -8.28125 8.964844 -8.28125 10.003906 -8.28125 C 11.042969 -8.28125 11.042969 -8.28125 11.933594 -6.410156 L 12.824219 -4.542969 C 13.121094 -3.890625 13.535156 -2.851562 13.714844 -1.929688 C 14.070312 0.0585938 13.121094 0 17.78125 0 C 19.234375 0 20.15625 0.03125 20.75 0.03125 C 22.054688 0.03125 21.492188 -0.179688 20.335938 -1.542969 C 19.710938 -2.316406 19.148438 -3.234375 18.761719 -3.976562 L 17.574219 -6.472656 C 17.1875 -7.300781 17.007812 -7.808594 17.007812 -8.191406 C 17.007812 -8.964844 17.691406 -9.351562 18.851562 -11.222656 C 19.414062 -12.171875 19.769531 -13.300781 19.769531 -14.515625 C 19.769531 -17.988281 17.007812 -20.78125 13.597656 -20.78125 L 7.597656 -20.78125 C 6.027344 -20.78125 4.925781 -20.808594 4.15625 -20.808594 C 3 -20.808594 2.640625 -20.75 2.640625 -20.394531 C 2.640625 -20.125 2.878906 -19.652344 3.117188 -18.878906 C 3.355469 -17.929688 3.445312 -16.890625 3.445312 -16.265625 L 3.445312 -4.542969 C 3.445312 -3.890625 3.355469 -2.851562 3.117188 -1.929688 C 2.851562 -1.039062 2.582031 -0.5625 2.582031 -0.296875 C 2.582031 -0.03125 2.851562 0.03125 3.621094 0.03125 C 4.1875 0.03125 5.015625 0 6.203125 0 C 7.390625 0 8.222656 0.03125 8.785156 0.03125 C 9.558594 0.03125 9.824219 -0.03125 9.824219 -0.296875 C 9.824219 -0.5625 9.558594 -1.039062 9.292969 -1.929688 Z M 11.667969 -18.109375 C 12.792969 -18.109375 13.714844 -16.503906 13.714844 -14.515625 C 13.714844 -12.558594 12.792969 -10.953125 11.667969 -10.953125 L 10.300781 -10.953125 C 8.964844 -10.953125 8.964844 -10.953125 8.964844 -14.515625 C 8.964844 -18.109375 8.964844 -18.109375 10.300781 -18.109375 Z M 11.667969 -18.109375 "/></g></g></g><g fill="#000000" fill-opacity="1"><g transform="translate(217.837778, 188.011204)"><g><path d="M 18.34375 -3.382812 C 18.40625 -4.484375 18.464844 -5.136719 18.464844 -5.492188 C 18.464844 -6.203125 18.195312 -5.519531 17.15625 -4.421875 C 16.265625 -3.503906 14.84375 -2.671875 12.644531 -2.671875 L 10.777344 -2.671875 C 8.933594 -2.671875 8.933594 -2.671875 8.933594 -9.46875 L 8.933594 -16.265625 C 8.933594 -16.890625 9.023438 -17.929688 9.292969 -18.878906 C 9.558594 -19.742188 9.824219 -20.246094 9.824219 -20.511719 C 9.824219 -20.78125 9.589844 -20.808594 8.816406 -20.808594 C 8.253906 -20.808594 7.421875 -20.78125 6.203125 -20.78125 C 4.988281 -20.78125 4.15625 -20.808594 3.59375 -20.808594 C 2.820312 -20.808594 2.582031 -20.78125 2.582031 -20.511719 C 2.582031 -20.246094 2.851562 -19.742188 3.117188 -18.878906 C 3.355469 -17.929688 3.445312 -16.890625 3.445312 -16.265625 L 3.445312 -4.542969 C 3.445312 -3.890625 3.355469 -2.851562 3.117188 -1.929688 C 2.910156 -1.246094 2.730469 -0.832031 2.730469 -0.535156 C 2.730469 -0.0585938 3.234375 0.03125 5.105469 0.03125 C 6.203125 0.03125 7.71875 0 9.886719 0 C 18.136719 0 18.136719 0 18.34375 -3.382812 Z M 18.34375 -3.382812 "/></g></g></g><g fill="#000000" fill-opacity="1"><g transform="translate(236.835313, 188.011204)"><g><path d="M 3.445312 -8.253906 C 3.445312 -2.851562 6.738281 0.503906 12.050781 0.503906 C 17.394531 0.503906 20.660156 -2.851562 20.660156 -8.253906 L 20.660156 -16.265625 C 20.660156 -16.890625 20.75 -17.929688 21.015625 -18.878906 C 21.3125 -19.890625 21.640625 -20.363281 21.640625 -20.601562 C 21.640625 -20.898438 21.078125 -20.78125 19.207031 -20.78125 C 18.34375 -20.78125 17.78125 -20.808594 17.394531 -20.808594 C 16.355469 -20.808594 16.921875 -20.570312 17.425781 -18.878906 C 17.664062 -17.929688 17.75 -16.890625 17.75 -16.265625 L 17.75 -8.253906 C 17.75 -4.691406 16.058594 -2.433594 13.359375 -2.433594 C 10.65625 -2.433594 8.933594 -4.691406 8.933594 -8.253906 L 8.933594 -16.265625 C 8.933594 -16.890625 9.023438 -17.929688 9.292969 -18.878906 C 9.558594 -19.742188 9.824219 -20.246094 9.824219 -20.511719 C 9.824219 -20.78125 9.589844 -20.808594 8.816406 -20.808594 C 8.253906 -20.808594 7.421875 -20.78125 6.203125 -20.78125 C 4.925781 -20.78125 4.066406 -20.808594 3.503906 -20.808594 C 2.789062 -20.808594 2.554688 -20.78125 2.554688 -20.542969 C 2.554688 -20.304688 2.820312 -19.828125 3.058594 -19.058594 C 3.324219 -18.226562 3.414062 -17.246094 3.445312 -16.5625 Z M 3.445312 -8.253906 "/></g></g></g><g fill="#000000" fill-opacity="1"><g transform="translate(260.671283, 188.011204)"><g><path d="M 12.734375 -3.917969 C 12.734375 -3 11.636719 -2.433594 9.855469 -2.433594 C 8.074219 -2.433594 6.261719 -3 4.808594 -3.890625 C 3.085938 -4.957031 2.375 -5.878906 2.078125 -5.878906 C 1.839844 -5.878906 1.898438 -5.222656 1.988281 -3.414062 C 2.195312 0.503906 1.960938 0.207031 3 -0.414062 C 3.324219 -0.625 3.742188 -0.742188 4.246094 -0.742188 C 5.9375 -0.742188 7.957031 0.503906 10.566406 0.503906 C 12.617188 0.503906 14.605469 -0.207031 15.941406 -1.515625 C 17.335938 -2.851562 18.226562 -4.570312 18.226562 -6.351562 C 18.226562 -8.699219 16.652344 -11.132812 12.496094 -12.792969 C 9.589844 -13.980469 6.796875 -15.109375 6.796875 -16.710938 C 6.796875 -17.75 7.835938 -18.34375 9.558594 -18.34375 C 11.222656 -18.34375 12.941406 -17.8125 14.308594 -16.890625 C 16 -15.761719 16.683594 -14.84375 16.949219 -14.84375 C 17.1875 -14.84375 17.070312 -15.523438 16.980469 -17.367188 C 16.800781 -21.285156 17.039062 -20.988281 16.03125 -20.363281 C 15.703125 -20.15625 15.289062 -20.066406 14.84375 -20.066406 C 13.210938 -20.066406 11.605469 -21.285156 8.996094 -21.285156 C 4.898438 -21.285156 1.335938 -18.226562 1.335938 -14.546875 C 1.335938 -8.015625 12.734375 -7.835938 12.734375 -3.917969 Z M 12.734375 -3.917969 "/></g></g></g><g fill="#000000" fill-opacity="1"><g transform="translate(279.639143, 188.011204)"><g><path d="M 1.839844 -16.355469 C 2.761719 -17.277344 4.15625 -18.109375 6.382812 -18.109375 L 6.855469 -18.109375 C 7.363281 -18.109375 7.363281 -18.109375 7.363281 -11.308594 L 7.363281 -4.542969 C 7.363281 -3.890625 7.273438 -2.851562 7.003906 -1.929688 C 6.738281 -1.039062 6.472656 -0.5625 6.472656 -0.296875 C 6.472656 -0.03125 6.738281 0.03125 7.511719 0.03125 C 8.074219 0.03125 8.90625 0 10.09375 0 C 11.28125 0 12.113281 0.03125 12.675781 0.03125 C 13.449219 0.03125 13.714844 -0.03125 13.714844 -0.296875 C 13.714844 -0.5625 13.449219 -1.039062 13.179688 -1.929688 C 12.914062 -2.851562 12.855469 -3.890625 12.855469 -4.542969 L 12.855469 -11.308594 C 12.855469 -18.109375 12.855469 -18.109375 13.328125 -18.109375 L 13.832031 -18.109375 C 16.03125 -18.109375 17.484375 -17.304688 18.34375 -16.355469 C 19.117188 -15.523438 19.445312 -14.929688 19.59375 -14.929688 C 19.742188 -14.929688 19.652344 -15.613281 19.53125 -17.367188 C 19.324219 -20.78125 19.324219 -20.78125 10.09375 -20.78125 C 0.890625 -20.78125 0.890625 -20.78125 0.652344 -17.367188 C 0.59375 -16.265625 0.535156 -15.613281 0.535156 -15.257812 C 0.535156 -14.515625 0.800781 -15.199219 1.839844 -16.355469 Z M 1.839844 -16.355469 "/></g></g></g></svg>