<?xml version="1.0" standalone="no"?>
<!DOCTYPE svg PUBLIC "-//W3C//DTD SVG 20010904//EN"
 "http://www.w3.org/TR/2001/REC-SVG-20010904/DTD/svg10.dtd">
<svg version="1.0" xmlns="http://www.w3.org/2000/svg"
 width="500.000000pt" height="500.000000pt" viewBox="0 0 500.000000 500.000000"
 preserveAspectRatio="xMidYMid meet">
<metadata>
Created by potrace 1.14, written by Peter Selinger 2001-2017
</metadata>
<g transform="translate(0.000000,500.000000) scale(0.100000,-0.100000)"
fill="#000000" stroke="none">
<path d="M1733 3482 c-24 -4 -29 -19 -37 -120 -3 -40 -1 -55 10 -59 21 -8 24
-1 30 53 3 27 7 50 8 51 1 2 126 -121 277 -272 249 -249 309 -300 309 -262 0
7 -124 137 -275 288 -151 150 -275 277 -275 281 0 4 24 8 53 10 38 2 52 7 52
18 0 12 -14 15 -65 16 -36 0 -75 -1 -87 -4z"/>
<path d="M3115 3479 c-4 -6 -1 -15 6 -20 13 -8 79 -14 104 -10 6 1 -111 -119
-259 -267 -246 -247 -283 -292 -243 -292 7 0 130 118 274 262 221 221 263 259
264 238 1 -32 9 -84 14 -89 2 -2 11 -1 19 2 13 5 15 19 10 74 -9 98 -9 96 -35
103 -45 12 -147 11 -154 -1z"/>
<path d="M2453 3434 c-72 -46 -80 -47 -118 -20 -18 12 -32 7 -145 -55 -147
-80 -155 -86 -140 -104 10 -11 19 -10 53 9 178 97 213 114 225 107 10 -6 1
-16 -32 -37 -45 -28 -56 -47 -36 -59 5 -3 68 31 139 76 71 45 131 82 134 83 2
0 32 -19 67 -43 l63 -44 -33 -27 c-27 -22 -30 -28 -17 -38 11 -10 25 -4 73 28
32 22 62 40 67 40 4 0 47 -25 94 -55 48 -30 90 -55 94 -55 4 0 9 7 13 15 4 11
-23 34 -96 82 l-101 66 -29 -18 -29 -17 -74 56 c-41 31 -80 56 -87 56 -7 0
-46 -21 -85 -46z"/>
<path d="M3548 2761 c-18 -9 -39 -29 -46 -44 -22 -45 -2 -78 71 -118 44 -24
62 -40 62 -54 0 -17 -6 -20 -38 -18 -21 1 -51 12 -68 24 l-30 21 3 -37 c3 -35
5 -38 43 -42 96 -12 116 -9 147 26 49 54 27 106 -62 147 -39 18 -60 33 -60 45
0 27 37 29 88 3 26 -13 47 -24 47 -24 0 0 -1 17 -3 39 -3 30 -7 38 -21 34 -9
-2 -35 0 -58 5 -33 8 -49 6 -75 -7z"/>
<path d="M1034 2742 c8 -15 27 -71 42 -123 33 -118 40 -131 66 -127 17 2 26
19 46 83 27 88 26 88 59 -20 16 -52 21 -60 43 -60 23 0 27 8 57 107 18 60 39
121 47 137 l15 29 -34 -1 c-31 -1 -35 -4 -35 -28 0 -36 -22 -129 -30 -129 -3
0 -16 34 -28 75 -34 115 -68 113 -99 -6 -18 -70 -28 -84 -37 -51 -11 39 -20
89 -21 112 -1 23 -5 25 -53 28 l-53 3 15 -29z"/>
<path d="M1540 2755 c0 -21 -55 -186 -74 -224 -21 -40 -21 -41 14 -41 24 0 30
4 30 23 0 36 15 49 54 49 44 0 44 1 49 -37 3 -28 7 -30 50 -33 47 -3 61 10 37
34 -7 7 -80 198 -80 210 0 1 -7 10 -16 18 -20 21 -64 21 -64 1z m44 -132 c6
-20 4 -23 -18 -23 -29 0 -31 6 -15 47 11 30 19 24 33 -24z"/>
<path d="M1775 2629 l0 -139 25 0 c25 0 25 0 22 87 -3 100 -5 101 71 -17 41
-64 75 -86 98 -63 5 5 11 68 13 141 l3 132 -29 0 c-25 0 -28 -3 -23 -21 6 -18
9 -85 6 -129 -1 -8 -24 20 -51 62 -49 76 -61 86 -115 86 -19 0 -20 -6 -20
-139z"/>
<path d="M2088 2661 c2 -66 0 -123 -7 -142 l-11 -31 88 4 c68 2 93 7 114 23
54 40 73 128 38 183 -31 50 -68 67 -152 70 l-74 3 4 -110z m141 34 c19 -37 19
-106 2 -139 -14 -26 -57 -41 -64 -22 -6 18 -7 177 -1 188 12 18 49 3 63 -27z"/>
<path d="M2389 2768 c0 -2 -1 -65 -2 -141 l-2 -137 92 0 c104 0 116 7 104 67
0 3 -9 -1 -18 -10 -20 -17 -75 -28 -91 -18 -6 3 -9 22 -8 41 3 34 9 38 45 29
14 -4 16 5 12 57 -1 13 -4 14 -16 4 -8 -7 -22 -10 -30 -6 -23 8 -15 70 9 74
26 5 62 -6 81 -24 14 -15 15 -13 13 16 -1 17 -9 35 -18 39 -13 7 -169 15 -171
9z"/>
<path d="M2645 2652 c1 -64 -2 -127 -6 -139 -8 -22 -6 -23 41 -23 l49 0 -6 55
c-9 90 28 67 61 -37 4 -14 16 -18 51 -18 25 0 45 3 45 6 0 3 -9 18 -19 33 -31
43 -34 72 -12 114 16 31 18 44 9 68 -14 41 -50 55 -139 57 l-76 1 2 -117z
m131 54 c10 -41 1 -61 -29 -64 -26 -3 -27 -2 -27 42 0 42 2 46 25 46 18 0 26
-7 31 -24z"/>
<path d="M2945 2630 l0 -140 91 0 c96 0 114 7 114 47 0 22 -1 23 -22 9 -13 -8
-35 -17 -49 -19 -49 -9 -54 2 -53 128 l1 115 -41 0 -41 0 0 -140z"/>
<path d="M3196 2748 c3 -11 7 -58 8 -106 3 -104 19 -137 75 -152 40 -10 68 -8
100 10 39 21 50 51 55 163 l5 107 -29 -2 c-25 -2 -28 -6 -24 -25 10 -37 10
-138 2 -171 -5 -17 -17 -36 -28 -42 -28 -15 -68 4 -76 36 -9 34 -9 142 -1 176
7 26 6 27 -43 25 -44 -1 -49 -3 -44 -19z"/>
<path d="M3758 2762 c-10 -2 -19 -8 -19 -13 -1 -5 -2 -15 -3 -21 -4 -24 5 -28
27 -13 26 18 57 20 58 3 5 -47 4 -169 -2 -195 l-7 -33 47 0 46 0 -3 120 -4
120 26 0 c14 0 34 -10 46 -22 l20 -22 0 32 c0 20 -6 35 -17 40 -17 9 -180 12
-215 4z"/>
<path d="M2036 2251 l-133 -132 -90 6 c-65 5 -93 4 -98 -5 -4 -6 -3 -16 1 -20
8 -8 73 -17 128 -19 17 -1 15 -6 -14 -36 -35 -36 -47 -38 -176 -20 -20 3 -36
-1 -44 -10 -19 -23 14 -33 132 -38 14 -1 11 -8 -14 -34 -32 -33 -32 -33 -107
-27 -42 4 -78 8 -80 10 -6 6 -41 -16 -41 -26 0 -10 32 -17 115 -25 67 -7 69
-8 71 -38 4 -58 14 -141 18 -145 3 -2 12 -2 20 1 15 6 15 41 2 159 -2 20 6 35
30 59 l34 33 1 -30 c2 -91 16 -133 39 -119 8 5 9 32 4 88 -3 45 -8 84 -10 86
-5 5 57 71 66 71 3 0 7 -19 8 -42 4 -73 12 -99 30 -96 18 4 18 4 9 114 l-6 70
129 129 c72 72 130 135 130 142 0 36 -34 12 -154 -106z"/>
<path d="M2810 2363 c0 -10 58 -76 129 -147 l129 -128 -5 -72 c-2 -40 -5 -81
-6 -91 -1 -14 4 -20 18 -20 13 0 21 7 21 20 1 11 4 41 5 67 2 27 8 48 12 48 9
0 63 -61 61 -70 -10 -39 -12 -170 -3 -176 25 -15 35 15 38 115 l1 35 34 -33
c29 -28 34 -39 31 -70 -15 -135 -14 -142 1 -148 8 -3 17 -4 19 -1 4 4 11 53
19 136 1 17 5 34 7 36 2 3 31 7 64 11 84 8 115 15 115 25 0 9 -25 31 -31 26
-2 -2 -40 -6 -85 -10 -79 -6 -81 -5 -108 23 -25 26 -26 30 -9 34 10 3 38 7 63
8 25 1 51 7 58 12 19 15 -4 36 -36 32 -143 -18 -143 -18 -179 17 l-34 33 73
10 c58 8 73 14 76 29 4 17 -2 18 -95 12 l-98 -6 -129 130 c-126 127 -156 148
-156 113z"/>
<path d="M2437 2010 c-30 -29 -35 -39 -24 -48 8 -7 18 -7 27 -2 21 13 30 12
30 -3 0 -16 -41 -57 -57 -57 -6 0 -14 -7 -17 -15 -8 -21 20 -30 50 -17 19 9
24 9 24 -2 0 -20 -47 -74 -70 -81 -20 -6 -27 -30 -11 -39 4 -3 25 3 45 13 l37
19 -5 -31 c-5 -32 -57 -87 -83 -87 -7 0 -13 -9 -13 -20 0 -26 24 -26 67 1 l35
22 -2 -44 c-4 -95 -1 -109 20 -109 18 0 20 7 20 74 l0 74 40 -21 c33 -18 41
-20 52 -8 11 11 10 15 -6 25 -53 31 -86 69 -86 97 l0 29 31 -19 c33 -20 59
-18 59 4 0 8 -8 16 -19 20 -30 9 -71 52 -71 75 0 17 3 19 19 10 11 -5 27 -10
35 -10 27 0 18 29 -13 45 -29 14 -49 50 -37 63 4 3 11 1 17 -5 13 -13 39 -6
39 9 0 14 -71 78 -84 77 -6 -1 -28 -19 -49 -39z"/>
<path d="M2142 1930 c-13 -16 -29 -30 -37 -30 -9 0 -15 -9 -15 -21 0 -19 4
-21 31 -15 25 5 30 3 27 -11 -2 -10 -18 -27 -35 -38 -53 -33 -37 -74 18 -45
16 9 19 7 19 -8 0 -20 -44 -65 -72 -75 -10 -4 -18 -13 -18 -22 0 -20 39 -20
68 1 l22 15 0 -74 c0 -55 4 -76 14 -80 23 -9 26 2 26 81 l0 74 25 -16 c13 -9
33 -16 45 -16 28 0 25 28 -4 40 -26 10 -66 56 -66 76 0 11 5 11 24 2 30 -13
58 -4 50 17 -3 8 -12 15 -18 15 -15 0 -56 42 -56 58 0 7 10 9 29 6 30 -6 57
16 30 24 -8 3 -28 20 -46 39 -17 18 -33 33 -35 33 -3 0 -14 -13 -26 -30z"/>
<path d="M2802 1930 c-13 -16 -29 -30 -36 -30 -17 0 -29 -27 -15 -36 6 -3 21
-3 35 0 45 12 17 -41 -38 -70 -12 -7 -14 -14 -8 -24 7 -12 15 -13 40 -3 26 10
30 9 30 -6 0 -19 -45 -64 -72 -74 -25 -9 -23 -37 2 -37 12 0 32 7 45 16 l25
16 0 -75 c0 -55 4 -76 14 -80 22 -9 26 2 26 80 l0 74 22 -15 c29 -21 68 -21
68 -1 0 9 -8 18 -17 22 -29 10 -73 55 -73 75 0 15 3 17 19 8 55 -29 71 12 18
45 -41 26 -50 59 -13 49 48 -12 49 7 2 52 -26 24 -48 44 -49 44 -2 0 -13 -13
-25 -30z"/>
</g>
</svg>
